<svg width="36" height="36" viewBox="0 0 47 46" fill="none" xmlns="http://www.w3.org/2000/svg"> <path d="M25.189 35.4272L23.3637 34.3755L21.5384 35.3995V39.6065C22.1281 39.6619 22.7459 39.7172 23.3637 39.7172C23.9815 39.7172 24.5993 39.6895 25.189 39.6065V35.4272Z" fill="#509B7A"/> <path d="M39.9598 26.432L25.189 18.0181V14.3093L23.3637 13.2575L21.5384 14.2816V18.0181L6.73953 26.3213C6.99226 27.5391 7.3854 28.7016 7.89087 29.8087L23.3637 21.1179L38.8085 29.8917C39.3139 28.8123 39.7071 27.6498 39.9598 26.432Z" fill="#509B7A"/> <path d="M25.189 28.5909V24.8544L23.3637 23.8027L21.5384 24.8267V28.5632L11.0641 34.4585C11.9627 35.3995 12.9455 36.2298 14.0407 36.9218L23.3637 31.6907L32.6306 36.9771C33.7257 36.2852 34.7367 35.4549 35.6353 34.5138L25.189 28.5909Z" fill="#509B7A"/> <path d="M27.8286 0.359806V4.04091C36.562 6.03369 43.0768 13.7557 43.0768 22.9723C43.0768 33.6835 34.2312 42.4019 23.3637 42.4019C12.4962 42.4019 3.65058 33.6835 3.65058 22.9723C3.65058 13.8387 10.0812 6.17208 18.7022 4.09627V0.387484C8.05935 2.51865 0 11.846 0 22.9723C0 35.6763 10.4744 46 23.3637 46C36.2531 46 46.7274 35.6763 46.7274 22.9723C46.7274 11.7629 38.5838 2.43562 27.8286 0.359806Z" fill="#509B7A"/> <path d="M21.5384 0V7.44525L8.5929 14.7244C7.66622 16.3297 7.02035 18.0734 6.65529 19.9555L23.3356 10.5728L40.0721 20.0939C39.7352 18.2395 39.0893 16.4681 38.1907 14.8628L25.189 7.44525V0H21.5384Z" fill="#509B7A"/> <defs> </defs> </svg>